# xmcd
#
# Track frame offsets: 
#        150
#        11775
#        23730
#        33606
#        46487
#        58922
#        68680
#        80258
#        90943
#        101218
#        111997
#        127004
#        135728
#        149526
#        159472
#        167925
#        177060
#        186383
#
# Disc length: 2596 seconds
#
# Revision: 0
# Processed by: cddbd v1.5.2PL0 Copyright (c) Steve Scherf et al.
# Submitted via: ExactAudioCopy v1.3
#
DISCID=010a2212
DTITLE=Marty Robbins - Rock and Roll and Robbins
DYEAR=1979
DGENRE=Country/Rock
TTITLE0=Long Gone Lonesome Blues
TTITLE1=That's All Right
TTITLE2=Long Tall Sally
TTITLE3=Mr. Teardrop
TTITLE4=Pretty Mama
TTITLE5=Just Married
TTITLE6=Maybellene
TTITLE7=Grown Up Tears
TTITLE8=Mean Mama Blues
TTITLE9=Please Don't Blame Me
TTITLE10=Tennessee Toddy
TTITLE11=Teenage Dream
TTITLE12=Respectfully Miss Brooks
TTITLE13=Stairway Of Love
TTITLE14=Teenager's Dad
TTITLE15=Cap and Gown
TTITLE16=Ruby Ann
TTITLE17=I'll Know You're Gone
EXTD=
EXTT0=
EXTT1=
EXTT2=
EXTT3=
EXTT4=
EXTT5=
EXTT6=
EXTT7=
EXTT8=
EXTT9=
EXTT10=
EXTT11=
EXTT12=
EXTT13=
EXTT14=
EXTT15=
EXTT16=
EXTT17=
PLAYORDER=
